# MagicaVoxel @ Ephtracy

# group
o other

# material
mtllib arabic-0-other.mtl
usemtl palette

# normals
vn -1 0 0
vn 1 0 0
vn 0 0 1
vn 0 0 -1
vn 0 -1 0
vn 0 1 0

# texcoords
vt 0.232422 0.5
vt 0.958984 0.5
vt 0.994141 0.5

# verts
v -0.6 -0.65 0.1
v -0.6 -0.65 -0.1
v -0.6 -0.45 0.1
v -0.6 -0.45 -0.1
v -0.6 -0.25 0.1
v -0.6 -0.25 -0.1
v -0.6 -0.05 0.5
v -0.6 -0.05 0.2
v -0.6 0.0500001 0.2
v -0.6 0.0500001 0.1
v -0.6 0.25 0.1
v -0.6 0.25 0
v -0.6 0.35 0.5
v -0.6 0.35 0.3
v -0.6 0.35 0
v -0.6 0.35 -0.1
v -0.6 0.45 0.3
v -0.6 0.45 0.2
v -0.6 0.55 0.2
v -0.6 0.55 0.1
v -0.6 0.65 0.1
v -0.6 0.65 -0.1
v -0.5 -0.25 0.6
v -0.5 -0.25 0.3
v -0.5 -0.25 0.1
v -0.5 -0.25 -0.1
v -0.5 -0.15 0.3
v -0.5 -0.15 0.2
v -0.5 -0.15 0.1
v -0.5 -0.15 -0.1
v -0.5 -0.05 0.5
v -0.5 -0.05 0.2
v -0.5 -0.05 -0.4
v -0.5 0.0500001 0.2
v -0.5 0.0500001 0.1
v -0.5 0.0500001 -0.4
v -0.5 0.0500001 -0.5
v -0.5 0.25 0.6
v -0.5 0.25 0.5
v -0.5 0.25 0.1
v -0.5 0.25 0
v -0.5 0.35 0.5
v -0.5 0.35 0.3
v -0.5 0.35 0
v -0.5 0.35 -0.1
v -0.5 0.45 0.3
v -0.5 0.45 0.2
v -0.5 0.55 0.2
v -0.5 0.55 0.1
v -0.5 0.65 0.5
v -0.5 0.65 0.1
v -0.5 0.65 -0.1
v -0.5 0.65 -0.5
v -0.4 -1.15 0.2
v -0.4 -1.15 -0.4
v -0.4 -0.85 -0.3
v -0.4 -0.85 -0.4
v -0.4 -0.55 0.1
v -0.4 -0.55 -0.1
v -0.4 -0.45 -0.2
v -0.4 -0.45 -0.3
v -0.4 -0.35 0.6
v -0.4 -0.35 0.4
v -0.4 -0.25 0.6
v -0.4 -0.25 0.4
v -0.4 -0.15 0.2
v -0.4 -0.15 0.1
v -0.4 -0.15 -0.1
v -0.4 -0.05 0.2
v -0.4 -0.05 -0.2
v -0.3 -0.45 0.6
v -0.3 -0.45 0.5
v -0.3 -0.35 0.6
v -0.3 -0.35 0.5
v -0.3 0.25 0.6
v -0.3 0.25 0.5
v -0.3 0.35 0.6
v -0.3 0.35 0.5
v 0.5 -0.65 0.1
v 0.5 -0.65 -0.1
v 0.5 -0.55 0.1
v 0.5 -0.55 -0.1
v -0.5 -0.65 0.1
v -0.5 -0.65 -0.1
v -0.5 -0.55 0.1
v -0.5 -0.55 -0.1
v 0.3 -0.45 0.6
v 0.3 -0.45 0.5
v 0.3 -0.35 0.6
v 0.3 -0.35 0.5
v 0.3 0.25 0.6
v 0.3 0.25 0.5
v 0.3 0.35 0.6
v 0.3 0.35 0.5
v 0.4 -1.15 0.2
v 0.4 -1.15 -0.4
v 0.4 -0.85 -0.3
v 0.4 -0.85 -0.4
v 0.4 -0.55 0.1
v 0.4 -0.55 -0.1
v 0.4 -0.45 -0.2
v 0.4 -0.45 -0.3
v 0.4 -0.35 0.6
v 0.4 -0.35 0.4
v 0.4 -0.25 0.6
v 0.4 -0.25 0.4
v 0.4 -0.15 0.2
v 0.4 -0.15 0.1
v 0.4 -0.15 -0.1
v 0.4 -0.05 0.2
v 0.4 -0.05 -0.2
v 0.5 -0.25 0.6
v 0.5 -0.25 0.3
v 0.5 -0.25 0.1
v 0.5 -0.25 -0.1
v 0.5 -0.15 0.3
v 0.5 -0.15 0.2
v 0.5 -0.15 0.1
v 0.5 -0.15 -0.1
v 0.5 -0.05 0.5
v 0.5 -0.05 0.2
v 0.5 -0.05 -0.4
v 0.5 0.0500001 0.2
v 0.5 0.0500001 0.1
v 0.5 0.0500001 -0.4
v 0.5 0.0500001 -0.5
v 0.5 0.25 0.6
v 0.5 0.25 0.5
v 0.5 0.25 0.1
v 0.5 0.25 0
v 0.5 0.35 0.5
v 0.5 0.35 0.3
v 0.5 0.35 0
v 0.5 0.35 -0.1
v 0.5 0.45 0.3
v 0.5 0.45 0.2
v 0.5 0.55 0.2
v 0.5 0.55 0.1
v 0.5 0.65 0.5
v 0.5 0.65 0.1
v 0.5 0.65 -0.1
v 0.5 0.65 -0.5
v 0.6 -0.65 0.1
v 0.6 -0.65 -0.1
v 0.6 -0.45 0.1
v 0.6 -0.45 -0.1
v 0.6 -0.25 0.1
v 0.6 -0.25 -0.1
v 0.6 -0.05 0.5
v 0.6 -0.05 0.2
v 0.6 0.0500001 0.2
v 0.6 0.0500001 0.1
v 0.6 0.25 0.1
v 0.6 0.25 0
v 0.6 0.35 0.5
v 0.6 0.35 0.3
v 0.6 0.35 0
v 0.6 0.35 -0.1
v 0.6 0.45 0.3
v 0.6 0.45 0.2
v 0.6 0.55 0.2
v 0.6 0.55 0.1
v 0.6 0.65 0.1
v 0.6 0.65 -0.1
v -0.5 -0.25 0.6
v -0.5 0.25 0.6
v -0.4 -0.35 0.6
v -0.4 -0.25 0.6
v -0.3 -0.45 0.6
v -0.3 -0.35 0.6
v -0.3 0.25 0.6
v -0.3 0.35 0.6
v 0.3 -0.45 0.6
v 0.3 -0.35 0.6
v 0.3 0.25 0.6
v 0.3 0.35 0.6
v 0.4 -0.35 0.6
v 0.4 -0.25 0.6
v 0.5 -0.25 0.6
v 0.5 0.25 0.6
v -0.6 -0.05 0.5
v -0.6 0.35 0.5
v -0.5 -0.05 0.5
v -0.5 0.25 0.5
v -0.5 0.35 0.5
v -0.5 0.65 0.5
v -0.3 0.25 0.5
v -0.3 0.35 0.5
v 0.3 0.25 0.5
v 0.3 0.35 0.5
v 0.5 -0.05 0.5
v 0.5 0.25 0.5
v 0.5 0.35 0.5
v 0.5 0.65 0.5
v 0.6 -0.05 0.5
v 0.6 0.35 0.5
v -0.6 0.35 0.3
v -0.6 0.45 0.3
v -0.5 0.35 0.3
v -0.5 0.45 0.3
v 0.5 0.35 0.3
v 0.5 0.45 0.3
v 0.6 0.35 0.3
v 0.6 0.45 0.3
v -0.6 0.45 0.2
v -0.6 0.55 0.2
v -0.5 0.45 0.2
v -0.5 0.55 0.2
v -0.4 -1.15 0.2
v -0.4 -0.15 0.2
v 0.4 -1.15 0.2
v 0.4 -0.15 0.2
v 0.5 0.45 0.2
v 0.5 0.55 0.2
v 0.6 0.45 0.2
v 0.6 0.55 0.2
v -0.6 -0.65 0.1
v -0.6 -0.45 0.1
v -0.6 -0.25 0.1
v -0.6 0.55 0.1
v -0.6 0.65 0.1
v -0.5 -0.65 0.1
v -0.5 -0.55 0.1
v -0.5 -0.45 0.1
v -0.5 -0.25 0.1
v -0.5 -0.15 0.1
v -0.5 0.55 0.1
v -0.5 0.65 0.1
v -0.4 -0.55 0.1
v -0.4 -0.15 0.1
v 0.4 -0.55 0.1
v 0.4 -0.15 0.1
v 0.5 -0.65 0.1
v 0.5 -0.55 0.1
v 0.5 -0.45 0.1
v 0.5 -0.25 0.1
v 0.5 -0.15 0.1
v 0.5 0.55 0.1
v 0.5 0.65 0.1
v 0.6 -0.65 0.1
v 0.6 -0.45 0.1
v 0.6 -0.25 0.1
v 0.6 0.55 0.1
v 0.6 0.65 0.1
v -0.3 -0.45 0.5
v -0.3 -0.35 0.5
v 0.3 -0.45 0.5
v 0.3 -0.35 0.5
v -0.4 -0.35 0.4
v -0.4 -0.25 0.4
v 0.4 -0.35 0.4
v 0.4 -0.25 0.4
v -0.5 -0.25 0.3
v -0.5 -0.15 0.3
v 0.5 -0.25 0.3
v 0.5 -0.15 0.3
v -0.6 -0.05 0.2
v -0.6 0.0500001 0.2
v -0.5 -0.15 0.2
v -0.5 -0.05 0.2
v -0.5 0.0500001 0.2
v -0.4 -0.15 0.2
v -0.4 -0.05 0.2
v 0.4 -0.15 0.2
v 0.4 -0.05 0.2
v 0.5 -0.15 0.2
v 0.5 -0.05 0.2
v 0.5 0.0500001 0.2
v 0.6 -0.05 0.2
v 0.6 0.0500001 0.2
v -0.6 0.0500001 0.1
v -0.6 0.25 0.1
v -0.5 0.0500001 0.1
v -0.5 0.25 0.1
v 0.5 0.0500001 0.1
v 0.5 0.25 0.1
v 0.6 0.0500001 0.1
v 0.6 0.25 0.1
v -0.6 0.25 0
v -0.6 0.35 0
v -0.5 0.25 0
v -0.5 0.35 0
v 0.5 0.25 0
v 0.5 0.35 0
v 0.6 0.25 0
v 0.6 0.35 0
v -0.6 -0.65 -0.1
v -0.6 -0.45 -0.1
v -0.6 -0.25 -0.1
v -0.6 0.35 -0.1
v -0.6 0.65 -0.1
v -0.5 -0.65 -0.1
v -0.5 -0.55 -0.1
v -0.5 -0.45 -0.1
v -0.5 -0.25 -0.1
v -0.5 -0.15 -0.1
v -0.5 0.35 -0.1
v -0.5 0.65 -0.1
v -0.4 -0.55 -0.1
v -0.4 -0.15 -0.1
v 0.4 -0.55 -0.1
v 0.4 -0.15 -0.1
v 0.5 -0.65 -0.1
v 0.5 -0.55 -0.1
v 0.5 -0.45 -0.1
v 0.5 -0.25 -0.1
v 0.5 -0.15 -0.1
v 0.5 0.35 -0.1
v 0.5 0.65 -0.1
v 0.6 -0.65 -0.1
v 0.6 -0.45 -0.1
v 0.6 -0.25 -0.1
v 0.6 0.35 -0.1
v 0.6 0.65 -0.1
v -0.4 -0.45 -0.2
v -0.4 -0.05 -0.2
v 0.4 -0.45 -0.2
v 0.4 -0.05 -0.2
v -0.4 -0.85 -0.3
v -0.4 -0.45 -0.3
v 0.4 -0.85 -0.3
v 0.4 -0.45 -0.3
v -0.5 -0.05 -0.4
v -0.5 0.0500001 -0.4
v -0.4 -1.15 -0.4
v -0.4 -0.85 -0.4
v 0.4 -1.15 -0.4
v 0.4 -0.85 -0.4
v 0.5 -0.05 -0.4
v 0.5 0.0500001 -0.4
v -0.5 0.0500001 -0.5
v -0.5 0.65 -0.5
v 0.5 0.0500001 -0.5
v 0.5 0.65 -0.5
v -0.4 -1.15 0.2
v 0.4 -1.15 0.2
v -0.4 -1.15 -0.4
v 0.4 -1.15 -0.4
v -0.6 -0.65 0.1
v -0.5 -0.65 0.1
v 0.5 -0.65 0.1
v 0.6 -0.65 0.1
v -0.6 -0.65 -0.1
v -0.5 -0.65 -0.1
v 0.5 -0.65 -0.1
v 0.6 -0.65 -0.1
v -0.5 -0.55 0.1
v -0.4 -0.55 0.1
v 0.4 -0.55 0.1
v 0.5 -0.55 0.1
v -0.5 -0.55 -0.1
v -0.4 -0.55 -0.1
v 0.4 -0.55 -0.1
v 0.5 -0.55 -0.1
v -0.3 -0.45 0.6
v 0.3 -0.45 0.6
v -0.3 -0.45 0.5
v 0.3 -0.45 0.5
v -0.4 -0.35 0.6
v -0.3 -0.35 0.6
v 0.3 -0.35 0.6
v 0.4 -0.35 0.6
v -0.3 -0.35 0.5
v 0.3 -0.35 0.5
v -0.4 -0.35 0.4
v 0.4 -0.35 0.4
v -0.5 -0.25 0.6
v -0.4 -0.25 0.6
v 0.4 -0.25 0.6
v 0.5 -0.25 0.6
v -0.4 -0.25 0.4
v 0.4 -0.25 0.4
v -0.5 -0.25 0.3
v 0.5 -0.25 0.3
v -0.5 -0.15 0.3
v 0.5 -0.15 0.3
v -0.5 -0.15 0.2
v -0.4 -0.15 0.2
v 0.4 -0.15 0.2
v 0.5 -0.15 0.2
v -0.6 -0.05 0.5
v -0.5 -0.05 0.5
v 0.5 -0.05 0.5
v 0.6 -0.05 0.5
v -0.6 -0.05 0.2
v -0.5 -0.05 0.2
v -0.4 -0.05 0.2
v 0.4 -0.05 0.2
v 0.5 -0.05 0.2
v 0.6 -0.05 0.2
v -0.4 -0.05 -0.2
v 0.4 -0.05 -0.2
v -0.5 -0.05 -0.4
v 0.5 -0.05 -0.4
v -0.6 0.0500001 0.2
v -0.5 0.0500001 0.2
v 0.5 0.0500001 0.2
v 0.6 0.0500001 0.2
v -0.6 0.0500001 0.1
v -0.5 0.0500001 0.1
v 0.5 0.0500001 0.1
v 0.6 0.0500001 0.1
v -0.5 0.0500001 -0.4
v 0.5 0.0500001 -0.4
v -0.5 0.0500001 -0.5
v 0.5 0.0500001 -0.5
v -0.6 0.25 0.1
v -0.5 0.25 0.1
v 0.5 0.25 0.1
v 0.6 0.25 0.1
v -0.6 0.25 0
v -0.5 0.25 0
v 0.5 0.25 0
v 0.6 0.25 0
v -0.6 0.35 0
v -0.5 0.35 0
v 0.5 0.35 0
v 0.6 0.35 0
v -0.6 0.35 -0.1
v -0.5 0.35 -0.1
v 0.5 0.35 -0.1
v 0.6 0.35 -0.1
v -0.4 -0.85 -0.3
v 0.4 -0.85 -0.3
v -0.4 -0.85 -0.4
v 0.4 -0.85 -0.4
v -0.4 -0.45 -0.2
v 0.4 -0.45 -0.2
v -0.4 -0.45 -0.3
v 0.4 -0.45 -0.3
v -0.6 -0.25 0.1
v -0.5 -0.25 0.1
v 0.5 -0.25 0.1
v 0.6 -0.25 0.1
v -0.6 -0.25 -0.1
v -0.5 -0.25 -0.1
v 0.5 -0.25 -0.1
v 0.6 -0.25 -0.1
v -0.5 -0.15 0.1
v -0.4 -0.15 0.1
v 0.4 -0.15 0.1
v 0.5 -0.15 0.1
v -0.5 -0.15 -0.1
v -0.4 -0.15 -0.1
v 0.4 -0.15 -0.1
v 0.5 -0.15 -0.1
v -0.5 0.25 0.6
v -0.3 0.25 0.6
v 0.3 0.25 0.6
v 0.5 0.25 0.6
v -0.5 0.25 0.5
v -0.3 0.25 0.5
v 0.3 0.25 0.5
v 0.5 0.25 0.5
v -0.3 0.35 0.6
v 0.3 0.35 0.6
v -0.6 0.35 0.5
v -0.5 0.35 0.5
v -0.3 0.35 0.5
v 0.3 0.35 0.5
v 0.5 0.35 0.5
v 0.6 0.35 0.5
v -0.6 0.35 0.3
v -0.5 0.35 0.3
v 0.5 0.35 0.3
v 0.6 0.35 0.3
v -0.6 0.45 0.3
v -0.5 0.45 0.3
v 0.5 0.45 0.3
v 0.6 0.45 0.3
v -0.6 0.45 0.2
v -0.5 0.45 0.2
v 0.5 0.45 0.2
v 0.6 0.45 0.2
v -0.6 0.55 0.2
v -0.5 0.55 0.2
v 0.5 0.55 0.2
v 0.6 0.55 0.2
v -0.6 0.55 0.1
v -0.5 0.55 0.1
v 0.5 0.55 0.1
v 0.6 0.55 0.1
v -0.5 0.65 0.5
v 0.5 0.65 0.5
v -0.6 0.65 0.1
v -0.5 0.65 0.1
v 0.5 0.65 0.1
v 0.6 0.65 0.1
v -0.6 0.65 -0.1
v -0.5 0.65 -0.1
v 0.5 0.65 -0.1
v 0.6 0.65 -0.1
v -0.5 0.65 -0.5
v 0.5 0.65 -0.5

# faces
f 3/1/1 2/1/1 1/1/1
f 4/1/1 2/1/1 3/1/1
f 5/2/1 4/2/1 3/2/1
f 6/2/1 4/2/1 5/2/1
f 9/3/1 8/3/1 7/3/1
f 11/3/1 10/3/1 9/3/1
f 13/3/1 9/3/1 7/3/1
f 13/3/1 12/3/1 11/3/1
f 13/3/1 11/3/1 9/3/1
f 14/3/1 12/3/1 13/3/1
f 15/3/1 12/3/1 14/3/1
f 17/3/1 16/3/1 15/3/1
f 17/3/1 15/3/1 14/3/1
f 18/3/1 16/3/1 17/3/1
f 19/3/1 16/3/1 18/3/1
f 20/3/1 16/3/1 19/3/1
f 21/3/1 16/3/1 20/3/1
f 22/3/1 16/3/1 21/3/1
f 27/3/1 24/3/1 23/3/1
f 29/2/1 26/2/1 25/2/1
f 30/2/1 26/2/1 29/2/1
f 31/3/1 28/3/1 27/3/1
f 31/3/1 27/3/1 23/3/1
f 32/3/1 28/3/1 31/3/1
f 34/1/1 33/1/1 32/1/1
f 35/1/1 33/1/1 34/1/1
f 36/1/1 33/1/1 35/1/1
f 38/3/1 31/3/1 23/3/1
f 39/3/1 31/3/1 38/3/1
f 40/1/1 37/1/1 36/1/1
f 40/1/1 36/1/1 35/1/1
f 41/1/1 37/1/1 40/1/1
f 44/1/1 37/1/1 41/1/1
f 45/1/1 37/1/1 44/1/1
f 46/1/1 43/1/1 42/1/1
f 48/1/1 47/1/1 46/1/1
f 50/1/1 46/1/1 42/1/1
f 50/1/1 49/1/1 48/1/1
f 50/1/1 48/1/1 46/1/1
f 51/1/1 49/1/1 50/1/1
f 52/1/1 37/1/1 45/1/1
f 53/1/1 37/1/1 52/1/1
f 56/2/1 55/2/1 54/2/1
f 57/2/1 55/2/1 56/2/1
f 58/2/1 56/2/1 54/2/1
f 59/2/1 56/2/1 58/2/1
f 60/2/1 56/2/1 59/2/1
f 61/2/1 56/2/1 60/2/1
f 64/3/1 63/3/1 62/3/1
f 65/3/1 63/3/1 64/3/1
f 66/2/1 58/2/1 54/2/1
f 67/2/1 58/2/1 66/2/1
f 68/2/1 60/2/1 59/2/1
f 69/2/1 67/2/1 66/2/1
f 69/2/1 68/2/1 67/2/1
f 70/2/1 60/2/1 68/2/1
f 70/2/1 68/2/1 69/2/1
f 73/3/1 72/3/1 71/3/1
f 74/3/1 72/3/1 73/3/1
f 77/3/1 76/3/1 75/3/1
f 78/3/1 76/3/1 77/3/1
f 81/1/1 80/1/1 79/1/1
f 82/1/1 80/1/1 81/1/1
f 83/1/2 84/1/2 85/1/2
f 85/1/2 84/1/2 86/1/2
f 87/3/2 88/3/2 89/3/2
f 89/3/2 88/3/2 90/3/2
f 91/3/2 92/3/2 93/3/2
f 93/3/2 92/3/2 94/3/2
f 95/2/2 96/2/2 97/2/2
f 97/2/2 96/2/2 98/2/2
f 95/2/2 97/2/2 99/2/2
f 99/2/2 97/2/2 100/2/2
f 100/2/2 97/2/2 101/2/2
f 101/2/2 97/2/2 102/2/2
f 103/3/2 104/3/2 105/3/2
f 105/3/2 104/3/2 106/3/2
f 95/2/2 99/2/2 107/2/2
f 107/2/2 99/2/2 108/2/2
f 100/2/2 101/2/2 109/2/2
f 107/2/2 108/2/2 110/2/2
f 108/2/2 109/2/2 110/2/2
f 109/2/2 101/2/2 111/2/2
f 110/2/2 109/2/2 111/2/2
f 112/3/2 113/3/2 116/3/2
f 114/2/2 115/2/2 118/2/2
f 118/2/2 115/2/2 119/2/2
f 116/3/2 117/3/2 120/3/2
f 112/3/2 116/3/2 120/3/2
f 120/3/2 117/3/2 121/3/2
f 121/1/2 122/1/2 123/1/2
f 123/1/2 122/1/2 124/1/2
f 124/1/2 122/1/2 125/1/2
f 112/3/2 120/3/2 127/3/2
f 127/3/2 120/3/2 128/3/2
f 125/1/2 126/1/2 129/1/2
f 124/1/2 125/1/2 129/1/2
f 129/1/2 126/1/2 130/1/2
f 130/1/2 126/1/2 133/1/2
f 133/1/2 126/1/2 134/1/2
f 131/1/2 132/1/2 135/1/2
f 135/1/2 136/1/2 137/1/2
f 131/1/2 135/1/2 139/1/2
f 137/1/2 138/1/2 139/1/2
f 135/1/2 137/1/2 139/1/2
f 139/1/2 138/1/2 140/1/2
f 134/1/2 126/1/2 141/1/2
f 141/1/2 126/1/2 142/1/2
f 143/1/2 144/1/2 145/1/2
f 145/1/2 144/1/2 146/1/2
f 145/2/2 146/2/2 147/2/2
f 147/2/2 146/2/2 148/2/2
f 149/3/2 150/3/2 151/3/2
f 151/3/2 152/3/2 153/3/2
f 149/3/2 151/3/2 155/3/2
f 153/3/2 154/3/2 155/3/2
f 151/3/2 153/3/2 155/3/2
f 155/3/2 154/3/2 156/3/2
f 156/3/2 154/3/2 157/3/2
f 157/3/2 158/3/2 159/3/2
f 156/3/2 157/3/2 159/3/2
f 159/3/2 158/3/2 160/3/2
f 160/3/2 158/3/2 161/3/2
f 161/3/2 158/3/2 162/3/2
f 162/3/2 158/3/2 163/3/2
f 163/3/2 158/3/2 164/3/2
f 168/3/3 166/3/3 165/3/3
f 170/3/3 168/3/3 167/3/3
f 171/3/3 166/3/3 168/3/3
f 171/3/3 168/3/3 170/3/3
f 173/3/3 170/3/3 169/3/3
f 173/3/3 172/3/3 171/3/3
f 173/3/3 171/3/3 170/3/3
f 174/3/3 172/3/3 173/3/3
f 175/3/3 172/3/3 174/3/3
f 176/3/3 172/3/3 175/3/3
f 177/3/3 175/3/3 174/3/3
f 178/3/3 175/3/3 177/3/3
f 179/3/3 175/3/3 178/3/3
f 180/3/3 175/3/3 179/3/3
f 183/3/3 182/3/3 181/3/3
f 184/3/3 182/3/3 183/3/3
f 185/3/3 182/3/3 184/3/3
f 187/1/3 186/1/3 185/1/3
f 187/1/3 185/1/3 184/1/3
f 188/1/3 186/1/3 187/1/3
f 190/1/3 186/1/3 188/1/3
f 192/1/3 190/1/3 189/1/3
f 193/1/3 186/1/3 190/1/3
f 193/1/3 190/1/3 192/1/3
f 194/1/3 186/1/3 193/1/3
f 195/3/3 192/3/3 191/3/3
f 195/3/3 193/3/3 192/3/3
f 196/3/3 193/3/3 195/3/3
f 199/3/3 198/3/3 197/3/3
f 200/3/3 198/3/3 199/3/3
f 203/3/3 202/3/3 201/3/3
f 204/3/3 202/3/3 203/3/3
f 207/3/3 206/3/3 205/3/3
f 208/3/3 206/3/3 207/3/3
f 211/2/3 210/2/3 209/2/3
f 212/2/3 210/2/3 211/2/3
f 215/3/3 214/3/3 213/3/3
f 216/3/3 214/3/3 215/3/3
f 222/1/3 218/1/3 217/1/3
f 223/1/3 218/1/3 222/1/3
f 224/2/3 219/2/3 218/2/3
f 224/1/3 218/1/3 223/1/3
f 225/2/3 219/2/3 224/2/3
f 227/3/3 221/3/3 220/3/3
f 228/3/3 221/3/3 227/3/3
f 229/2/3 226/2/3 225/2/3
f 229/2/3 224/2/3 223/2/3
f 229/2/3 225/2/3 224/2/3
f 230/2/3 226/2/3 229/2/3
f 234/2/3 232/2/3 231/2/3
f 235/2/3 232/2/3 234/2/3
f 236/2/3 232/2/3 235/2/3
f 237/2/3 232/2/3 236/2/3
f 240/1/3 234/1/3 233/1/3
f 240/1/3 235/1/3 234/1/3
f 241/2/3 236/2/3 235/2/3
f 241/1/3 235/1/3 240/1/3
f 242/2/3 236/2/3 241/2/3
f 243/3/3 239/3/3 238/3/3
f 244/3/3 239/3/3 243/3/3
f 245/3/4 246/3/4 247/3/4
f 247/3/4 246/3/4 248/3/4
f 249/3/4 250/3/4 251/3/4
f 251/3/4 250/3/4 252/3/4
f 253/3/4 254/3/4 255/3/4
f 255/3/4 254/3/4 256/3/4
f 257/3/4 258/3/4 260/3/4
f 260/3/4 258/3/4 261/3/4
f 259/3/4 260/3/4 262/3/4
f 262/3/4 260/3/4 263/3/4
f 264/3/4 265/3/4 266/3/4
f 266/3/4 265/3/4 267/3/4
f 267/3/4 268/3/4 269/3/4
f 269/3/4 268/3/4 270/3/4
f 271/3/4 272/3/4 273/3/4
f 273/3/4 272/3/4 274/3/4
f 275/3/4 276/3/4 277/3/4
f 277/3/4 276/3/4 278/3/4
f 279/3/4 280/3/4 281/3/4
f 281/3/4 280/3/4 282/3/4
f 283/3/4 284/3/4 285/3/4
f 285/3/4 284/3/4 286/3/4
f 287/1/4 288/1/4 292/1/4
f 292/1/4 288/1/4 293/1/4
f 288/2/4 289/2/4 294/2/4
f 293/1/4 288/1/4 294/1/4
f 294/2/4 289/2/4 295/2/4
f 290/3/4 291/3/4 297/3/4
f 297/3/4 291/3/4 298/3/4
f 295/2/4 296/2/4 299/2/4
f 293/2/4 294/2/4 299/2/4
f 294/2/4 295/2/4 299/2/4
f 299/2/4 296/2/4 300/2/4
f 301/2/4 302/2/4 304/2/4
f 304/2/4 302/2/4 305/2/4
f 305/2/4 302/2/4 306/2/4
f 306/2/4 302/2/4 307/2/4
f 303/1/4 304/1/4 310/1/4
f 304/1/4 305/1/4 310/1/4
f 305/2/4 306/2/4 311/2/4
f 310/1/4 305/1/4 311/1/4
f 311/2/4 306/2/4 312/2/4
f 308/3/4 309/3/4 313/3/4
f 313/3/4 309/3/4 314/3/4
f 315/2/4 316/2/4 317/2/4
f 317/2/4 316/2/4 318/2/4
f 319/2/4 320/2/4 321/2/4
f 321/2/4 320/2/4 322/2/4
f 325/2/4 326/2/4 327/2/4
f 327/2/4 326/2/4 328/2/4
f 323/1/4 324/1/4 329/1/4
f 329/1/4 324/1/4 330/1/4
f 331/1/4 332/1/4 333/1/4
f 333/1/4 332/1/4 334/1/4
f 337/2/5 336/2/5 335/2/5
f 338/2/5 336/2/5 337/2/5
f 343/1/5 340/1/5 339/1/5
f 344/1/5 340/1/5 343/1/5
f 345/1/5 342/1/5 341/1/5
f 346/1/5 342/1/5 345/1/5
f 351/2/5 348/2/5 347/2/5
f 352/2/5 348/2/5 351/2/5
f 353/2/5 350/2/5 349/2/5
f 354/2/5 350/2/5 353/2/5
f 357/3/5 356/3/5 355/3/5
f 358/3/5 356/3/5 357/3/5
f 363/3/5 360/3/5 359/3/5
f 364/3/5 362/3/5 361/3/5
f 365/3/5 363/3/5 359/3/5
f 365/3/5 364/3/5 363/3/5
f 366/3/5 362/3/5 364/3/5
f 366/3/5 364/3/5 365/3/5
f 371/3/5 368/3/5 367/3/5
f 372/3/5 370/3/5 369/3/5
f 373/3/5 371/3/5 367/3/5
f 373/3/5 372/3/5 371/3/5
f 374/3/5 370/3/5 372/3/5
f 374/3/5 372/3/5 373/3/5
f 377/3/5 376/3/5 375/3/5
f 378/3/5 376/3/5 377/3/5
f 379/3/5 376/3/5 378/3/5
f 380/3/5 376/3/5 379/3/5
f 385/3/5 382/3/5 381/3/5
f 386/3/5 382/3/5 385/3/5
f 389/3/5 384/3/5 383/3/5
f 390/3/5 384/3/5 389/3/5
f 391/1/5 387/1/5 386/1/5
f 392/1/5 389/1/5 388/1/5
f 393/1/5 391/1/5 386/1/5
f 393/1/5 392/1/5 391/1/5
f 394/1/5 389/1/5 392/1/5
f 394/1/5 392/1/5 393/1/5
f 399/3/5 396/3/5 395/3/5
f 400/3/5 396/3/5 399/3/5
f 401/3/5 398/3/5 397/3/5
f 402/3/5 398/3/5 401/3/5
f 405/1/5 404/1/5 403/1/5
f 406/1/5 404/1/5 405/1/5
f 411/3/5 408/3/5 407/3/5
f 412/3/5 408/3/5 411/3/5
f 413/3/5 410/3/5 409/3/5
f 414/3/5 410/3/5 413/3/5
f 419/3/5 416/3/5 415/3/5
f 420/3/5 416/3/5 419/3/5
f 421/3/5 418/3/5 417/3/5
f 422/3/5 418/3/5 421/3/5
f 423/2/6 424/2/6 425/2/6
f 425/2/6 424/2/6 426/2/6
f 427/2/6 428/2/6 429/2/6
f 429/2/6 428/2/6 430/2/6
f 431/2/6 432/2/6 435/2/6
f 435/2/6 432/2/6 436/2/6
f 433/2/6 434/2/6 437/2/6
f 437/2/6 434/2/6 438/2/6
f 439/2/6 440/2/6 443/2/6
f 443/2/6 440/2/6 444/2/6
f 441/2/6 442/2/6 445/2/6
f 445/2/6 442/2/6 446/2/6
f 447/3/6 448/3/6 451/3/6
f 451/3/6 448/3/6 452/3/6
f 449/3/6 450/3/6 453/3/6
f 453/3/6 450/3/6 454/3/6
f 455/3/6 456/3/6 459/3/6
f 459/3/6 456/3/6 460/3/6
f 457/3/6 458/3/6 463/3/6
f 463/3/6 458/3/6 464/3/6
f 461/3/6 462/3/6 465/3/6
f 465/3/6 462/3/6 466/3/6
f 467/3/6 468/3/6 471/3/6
f 471/3/6 468/3/6 472/3/6
f 469/3/6 470/3/6 473/3/6
f 473/3/6 470/3/6 474/3/6
f 475/3/6 476/3/6 479/3/6
f 479/3/6 476/3/6 480/3/6
f 477/3/6 478/3/6 481/3/6
f 481/3/6 478/3/6 482/3/6
f 483/1/6 484/1/6 486/1/6
f 486/1/6 484/1/6 487/1/6
f 485/3/6 486/3/6 489/3/6
f 486/1/6 487/1/6 490/1/6
f 489/3/6 486/3/6 490/3/6
f 487/3/6 488/3/6 491/3/6
f 490/1/6 487/1/6 491/1/6
f 491/3/6 488/3/6 492/3/6
f 490/1/6 491/1/6 493/1/6
f 493/1/6 491/1/6 494/1/6
