# MagicaVoxel @ Ephtracy

# group
o 

# material
mtllib DoorFence.mtl
usemtl palette

# normals
vn -1 0 0
vn 1 0 0
vn 0 0 1
vn 0 0 -1
vn 0 -1 0
vn 0 1 0

# texcoords
vt 0.873047 0.5
vt 0.982422 0.5

# verts
v -2 -1.35 0.2
v -2 -1.35 -0.2
v -2 1.15 0.2
v -2 1.15 -0.2
v -1.9 1.15 0.1
v -1.9 1.15 -0.1
v -1.9 1.35 0.1
v -1.9 1.35 -0.1
v -1 -0.25 0.1
v -1 -0.25 0
v -1 -0.0500001 0.1
v -1 -0.0500001 0
v -0.6 -0.25 0.1
v -0.6 -0.25 0
v -0.6 -0.0500001 0.1
v -0.6 -0.0500001 0
v -0.2 -0.25 0.1
v -0.2 -0.25 0
v -0.2 -0.0500001 0.1
v -0.2 -0.0500001 0
v 0.0999999 -1.35 0
v 0.0999999 -1.35 -0.1
v 0.0999999 0.65 0.1
v 0.0999999 0.65 0
v 0.0999999 0.75 0.1
v 0.0999999 0.75 -0.1
v 0.9 -0.25 0.1
v 0.9 -0.25 0
v 0.9 -0.0500001 0.1
v 0.9 -0.0500001 0
v 1.3 -0.25 0.1
v 1.3 -0.25 0
v 1.3 -0.0500001 0.1
v 1.3 -0.0500001 0
v 1.7 -0.25 0.1
v 1.7 -0.25 0
v 1.7 -0.0500001 0.1
v 1.7 -0.0500001 0
v -1.7 1.15 0.1
v -1.7 1.15 -0.1
v -1.7 1.35 0.1
v -1.7 1.35 -0.1
v -1.6 -1.35 0.2
v -1.6 -1.35 0.1
v -1.6 -1.35 0
v -1.6 -1.35 -0.2
v -1.6 0.65 0.1
v -1.6 0.65 0
v -1.6 0.75 0.1
v -1.6 0.75 -0.1
v -1.6 0.95 0.1
v -1.6 0.95 -0.1
v -1.6 1.15 0.2
v -1.6 1.15 -0.2
v -1.2 -0.25 0.1
v -1.2 -0.25 0
v -1.2 -0.0500001 0.1
v -1.2 -0.0500001 0
v -0.8 -0.25 0.1
v -0.8 -0.25 0
v -0.8 -0.0500001 0.1
v -0.8 -0.0500001 0
v -0.4 -0.25 0.1
v -0.4 -0.25 0
v -0.4 -0.0500001 0.1
v -0.4 -0.0500001 0
v 0.3 -1.35 0
v 0.3 -1.35 -0.1
v 0.3 0.65 0.1
v 0.3 0.65 0
v 0.3 0.75 0.1
v 0.3 0.75 -0.1
v 0.7 -0.25 0.1
v 0.7 -0.25 0
v 0.7 -0.0500001 0.1
v 0.7 -0.0500001 0
v 1.1 -0.25 0.1
v 1.1 -0.25 0
v 1.1 -0.0500001 0.1
v 1.1 -0.0500001 0
v 1.5 -0.25 0.1
v 1.5 -0.25 0
v 1.5 -0.0500001 0.1
v 1.5 -0.0500001 0
v 2 -1.35 0.1
v 2 -1.35 0
v 2 0.65 0.1
v 2 0.65 0
v 2 0.75 0.1
v 2 0.75 -0.1
v 2 0.95 0.1
v 2 0.95 -0.1
v -2 -1.35 0.2
v -2 1.15 0.2
v -1.6 -1.35 0.2
v -1.6 1.15 0.2
v -1.9 1.15 0.1
v -1.9 1.35 0.1
v -1.7 1.15 0.1
v -1.7 1.35 0.1
v -1.6 -1.35 0.1
v -1.6 0.65 0.1
v -1.6 0.75 0.1
v -1.6 0.95 0.1
v -1.2 -0.25 0.1
v -1.2 -0.0500001 0.1
v -1 -0.25 0.1
v -1 -0.0500001 0.1
v -0.8 -0.25 0.1
v -0.8 -0.0500001 0.1
v -0.6 -0.25 0.1
v -0.6 -0.0500001 0.1
v -0.4 -0.25 0.1
v -0.4 -0.0500001 0.1
v -0.2 -0.25 0.1
v -0.2 -0.0500001 0.1
v 0.0999999 -1.35 0.1
v 0.0999999 0.65 0.1
v 0.0999999 0.75 0.1
v 0.3 -1.35 0.1
v 0.3 0.65 0.1
v 0.3 0.75 0.1
v 0.7 -0.25 0.1
v 0.7 -0.0500001 0.1
v 0.9 -0.25 0.1
v 0.9 -0.0500001 0.1
v 1.1 -0.25 0.1
v 1.1 -0.0500001 0.1
v 1.3 -0.25 0.1
v 1.3 -0.0500001 0.1
v 1.5 -0.25 0.1
v 1.5 -0.0500001 0.1
v 1.7 -0.25 0.1
v 1.7 -0.0500001 0.1
v 2 -1.35 0.1
v 2 0.65 0.1
v 2 0.75 0.1
v 2 0.95 0.1
v -1.6 -1.35 0
v -1.6 0.65 0
v -1.2 -0.25 0
v -1.2 -0.0500001 0
v -1 -0.25 0
v -1 -0.0500001 0
v -0.8 -0.25 0
v -0.8 -0.0500001 0
v -0.6 -0.25 0
v -0.6 -0.0500001 0
v -0.4 -0.25 0
v -0.4 -0.0500001 0
v -0.2 -0.25 0
v -0.2 -0.0500001 0
v 0.0999999 -1.35 0
v 0.0999999 0.65 0
v 0.3 -1.35 0
v 0.3 0.65 0
v 0.7 -0.25 0
v 0.7 -0.0500001 0
v 0.9 -0.25 0
v 0.9 -0.0500001 0
v 1.1 -0.25 0
v 1.1 -0.0500001 0
v 1.3 -0.25 0
v 1.3 -0.0500001 0
v 1.5 -0.25 0
v 1.5 -0.0500001 0
v 1.7 -0.25 0
v 1.7 -0.0500001 0
v 2 -1.35 0
v 2 0.65 0
v -1.9 1.15 -0.1
v -1.9 1.35 -0.1
v -1.7 1.15 -0.1
v -1.7 1.35 -0.1
v -1.6 0.75 -0.1
v -1.6 0.95 -0.1
v 0.0999999 -1.35 -0.1
v 0.0999999 0.75 -0.1
v 0.3 -1.35 -0.1
v 0.3 0.75 -0.1
v 2 0.75 -0.1
v 2 0.95 -0.1
v -2 -1.35 -0.2
v -2 1.15 -0.2
v -1.6 -1.35 -0.2
v -1.6 1.15 -0.2
v -2 -1.35 0.2
v -1.6 -1.35 0.2
v -1.6 -1.35 0.1
v 0.0999999 -1.35 0.1
v 0.3 -1.35 0.1
v 2 -1.35 0.1
v -1.6 -1.35 0
v 0.0999999 -1.35 0
v 0.3 -1.35 0
v 2 -1.35 0
v 0.0999999 -1.35 -0.1
v 0.3 -1.35 -0.1
v -2 -1.35 -0.2
v -1.6 -1.35 -0.2
v -1.2 -0.0500001 0.1
v -1 -0.0500001 0.1
v -0.8 -0.0500001 0.1
v -0.6 -0.0500001 0.1
v -0.4 -0.0500001 0.1
v -0.2 -0.0500001 0.1
v 0.7 -0.0500001 0.1
v 0.9 -0.0500001 0.1
v 1.1 -0.0500001 0.1
v 1.3 -0.0500001 0.1
v 1.5 -0.0500001 0.1
v 1.7 -0.0500001 0.1
v -1.2 -0.0500001 0
v -1 -0.0500001 0
v -0.8 -0.0500001 0
v -0.6 -0.0500001 0
v -0.4 -0.0500001 0
v -0.2 -0.0500001 0
v 0.7 -0.0500001 0
v 0.9 -0.0500001 0
v 1.1 -0.0500001 0
v 1.3 -0.0500001 0
v 1.5 -0.0500001 0
v 1.7 -0.0500001 0
v -1.6 0.75 0.1
v 0.0999999 0.75 0.1
v 0.3 0.75 0.1
v 2 0.75 0.1
v -1.6 0.75 -0.1
v 0.0999999 0.75 -0.1
v 0.3 0.75 -0.1
v 2 0.75 -0.1
v -1.2 -0.25 0.1
v -1 -0.25 0.1
v -0.8 -0.25 0.1
v -0.6 -0.25 0.1
v -0.4 -0.25 0.1
v -0.2 -0.25 0.1
v 0.7 -0.25 0.1
v 0.9 -0.25 0.1
v 1.1 -0.25 0.1
v 1.3 -0.25 0.1
v 1.5 -0.25 0.1
v 1.7 -0.25 0.1
v -1.2 -0.25 0
v -1 -0.25 0
v -0.8 -0.25 0
v -0.6 -0.25 0
v -0.4 -0.25 0
v -0.2 -0.25 0
v 0.7 -0.25 0
v 0.9 -0.25 0
v 1.1 -0.25 0
v 1.3 -0.25 0
v 1.5 -0.25 0
v 1.7 -0.25 0
v -1.6 0.65 0.1
v 0.0999999 0.65 0.1
v 0.3 0.65 0.1
v 2 0.65 0.1
v -1.6 0.65 0
v 0.0999999 0.65 0
v 0.3 0.65 0
v 2 0.65 0
v -1.6 0.95 0.1
v 2 0.95 0.1
v -1.6 0.95 -0.1
v 2 0.95 -0.1
v -2 1.15 0.2
v -1.6 1.15 0.2
v -1.9 1.15 0.1
v -1.7 1.15 0.1
v -1.9 1.15 -0.1
v -1.7 1.15 -0.1
v -2 1.15 -0.2
v -1.6 1.15 -0.2
v -1.9 1.35 0.1
v -1.7 1.35 0.1
v -1.9 1.35 -0.1
v -1.7 1.35 -0.1

# faces
f 3/2/1 2/2/1 1/2/1
f 4/2/1 2/2/1 3/2/1
f 7/2/1 6/2/1 5/2/1
f 8/2/1 6/2/1 7/2/1
f 11/1/1 10/1/1 9/1/1
f 12/1/1 10/1/1 11/1/1
f 15/1/1 14/1/1 13/1/1
f 16/1/1 14/1/1 15/1/1
f 19/1/1 18/1/1 17/1/1
f 20/1/1 18/1/1 19/1/1
f 24/2/1 22/2/1 21/2/1
f 25/2/1 24/2/1 23/2/1
f 26/2/1 22/2/1 24/2/1
f 26/2/1 24/2/1 25/2/1
f 29/1/1 28/1/1 27/1/1
f 30/1/1 28/1/1 29/1/1
f 33/1/1 32/1/1 31/1/1
f 34/1/1 32/1/1 33/1/1
f 37/1/1 36/1/1 35/1/1
f 38/1/1 36/1/1 37/1/1
f 39/2/2 40/2/2 41/2/2
f 41/2/2 40/2/2 42/2/2
f 43/2/2 44/2/2 47/2/2
f 45/2/2 46/2/2 48/2/2
f 43/2/2 47/2/2 49/2/2
f 47/2/2 48/2/2 49/2/2
f 48/2/2 46/2/2 50/2/2
f 49/2/2 48/2/2 50/2/2
f 43/2/2 49/2/2 51/2/2
f 50/2/2 46/2/2 52/2/2
f 43/2/2 51/2/2 53/2/2
f 51/2/2 52/2/2 53/2/2
f 52/2/2 46/2/2 54/2/2
f 53/2/2 52/2/2 54/2/2
f 55/1/2 56/1/2 57/1/2
f 57/1/2 56/1/2 58/1/2
f 59/1/2 60/1/2 61/1/2
f 61/1/2 60/1/2 62/1/2
f 63/1/2 64/1/2 65/1/2
f 65/1/2 64/1/2 66/1/2
f 67/2/2 68/2/2 70/2/2
f 69/2/2 70/2/2 71/2/2
f 70/2/2 68/2/2 72/2/2
f 71/2/2 70/2/2 72/2/2
f 73/1/2 74/1/2 75/1/2
f 75/1/2 74/1/2 76/1/2
f 77/1/2 78/1/2 79/1/2
f 79/1/2 78/1/2 80/1/2
f 81/1/2 82/1/2 83/1/2
f 83/1/2 82/1/2 84/1/2
f 85/1/2 86/1/2 87/1/2
f 87/1/2 86/1/2 88/1/2
f 89/2/2 90/2/2 91/2/2
f 91/2/2 90/2/2 92/2/2
f 95/2/3 94/2/3 93/2/3
f 96/2/3 94/2/3 95/2/3
f 99/2/3 98/2/3 97/2/3
f 100/2/3 98/2/3 99/2/3
f 105/1/3 102/1/3 101/1/3
f 106/1/3 102/1/3 105/1/3
f 107/1/3 105/1/3 101/1/3
f 108/1/3 102/1/3 106/1/3
f 109/1/3 107/1/3 101/1/3
f 109/1/3 108/1/3 107/1/3
f 110/1/3 102/1/3 108/1/3
f 110/1/3 108/1/3 109/1/3
f 111/1/3 109/1/3 101/1/3
f 112/1/3 102/1/3 110/1/3
f 113/1/3 111/1/3 101/1/3
f 113/1/3 112/1/3 111/1/3
f 114/1/3 102/1/3 112/1/3
f 114/1/3 112/1/3 113/1/3
f 115/1/3 113/1/3 101/1/3
f 116/1/3 102/1/3 114/1/3
f 117/1/3 115/1/3 101/1/3
f 117/1/3 116/1/3 115/1/3
f 118/1/3 102/1/3 116/1/3
f 118/1/3 116/1/3 117/1/3
f 119/2/3 104/2/3 103/2/3
f 120/2/3 118/2/3 117/2/3
f 120/2/3 119/2/3 118/2/3
f 121/2/3 119/2/3 120/2/3
f 122/2/3 104/2/3 119/2/3
f 122/2/3 119/2/3 121/2/3
f 123/1/3 121/1/3 120/1/3
f 124/1/3 121/1/3 123/1/3
f 125/1/3 123/1/3 120/1/3
f 126/1/3 121/1/3 124/1/3
f 127/1/3 125/1/3 120/1/3
f 127/1/3 126/1/3 125/1/3
f 128/1/3 121/1/3 126/1/3
f 128/1/3 126/1/3 127/1/3
f 129/1/3 127/1/3 120/1/3
f 130/1/3 121/1/3 128/1/3
f 131/1/3 129/1/3 120/1/3
f 131/1/3 130/1/3 129/1/3
f 132/1/3 121/1/3 130/1/3
f 132/1/3 130/1/3 131/1/3
f 133/1/3 131/1/3 120/1/3
f 134/1/3 121/1/3 132/1/3
f 135/1/3 133/1/3 120/1/3
f 135/1/3 134/1/3 133/1/3
f 136/1/3 121/1/3 134/1/3
f 136/1/3 134/1/3 135/1/3
f 137/2/3 104/2/3 122/2/3
f 138/2/3 104/2/3 137/2/3
f 139/1/4 140/1/4 141/1/4
f 141/1/4 140/1/4 142/1/4
f 139/1/4 141/1/4 143/1/4
f 142/1/4 140/1/4 144/1/4
f 139/1/4 143/1/4 145/1/4
f 143/1/4 144/1/4 145/1/4
f 144/1/4 140/1/4 146/1/4
f 145/1/4 144/1/4 146/1/4
f 139/1/4 145/1/4 147/1/4
f 146/1/4 140/1/4 148/1/4
f 139/1/4 147/1/4 149/1/4
f 147/1/4 148/1/4 149/1/4
f 148/1/4 140/1/4 150/1/4
f 149/1/4 148/1/4 150/1/4
f 139/1/4 149/1/4 151/1/4
f 150/1/4 140/1/4 152/1/4
f 139/1/4 151/1/4 153/1/4
f 151/1/4 152/1/4 153/1/4
f 152/1/4 140/1/4 154/1/4
f 153/1/4 152/1/4 154/1/4
f 155/1/4 156/1/4 157/1/4
f 157/1/4 156/1/4 158/1/4
f 155/1/4 157/1/4 159/1/4
f 158/1/4 156/1/4 160/1/4
f 155/1/4 159/1/4 161/1/4
f 159/1/4 160/1/4 161/1/4
f 160/1/4 156/1/4 162/1/4
f 161/1/4 160/1/4 162/1/4
f 155/1/4 161/1/4 163/1/4
f 162/1/4 156/1/4 164/1/4
f 155/1/4 163/1/4 165/1/4
f 163/1/4 164/1/4 165/1/4
f 164/1/4 156/1/4 166/1/4
f 165/1/4 164/1/4 166/1/4
f 155/1/4 165/1/4 167/1/4
f 166/1/4 156/1/4 168/1/4
f 155/1/4 167/1/4 169/1/4
f 167/1/4 168/1/4 169/1/4
f 168/1/4 156/1/4 170/1/4
f 169/1/4 168/1/4 170/1/4
f 171/2/4 172/2/4 173/2/4
f 173/2/4 172/2/4 174/2/4
f 175/2/4 176/2/4 178/2/4
f 177/2/4 178/2/4 179/2/4
f 178/2/4 176/2/4 180/2/4
f 179/2/4 178/2/4 180/2/4
f 180/2/4 176/2/4 181/2/4
f 181/2/4 176/2/4 182/2/4
f 183/2/4 184/2/4 185/2/4
f 185/2/4 184/2/4 186/2/4
f 189/2/5 188/2/5 187/2/5
f 193/2/5 189/2/5 187/2/5
f 193/1/5 190/1/5 189/1/5
f 194/2/5 191/2/5 190/2/5
f 194/1/5 190/1/5 193/1/5
f 195/1/5 192/1/5 191/1/5
f 195/2/5 191/2/5 194/2/5
f 196/1/5 192/1/5 195/1/5
f 197/2/5 195/2/5 194/2/5
f 198/2/5 195/2/5 197/2/5
f 199/2/5 193/2/5 187/2/5
f 200/2/5 193/2/5 199/2/5
f 213/1/5 202/1/5 201/1/5
f 214/1/5 202/1/5 213/1/5
f 215/1/5 204/1/5 203/1/5
f 216/1/5 204/1/5 215/1/5
f 217/1/5 206/1/5 205/1/5
f 218/1/5 206/1/5 217/1/5
f 219/1/5 208/1/5 207/1/5
f 220/1/5 208/1/5 219/1/5
f 221/1/5 210/1/5 209/1/5
f 222/1/5 210/1/5 221/1/5
f 223/1/5 212/1/5 211/1/5
f 224/1/5 212/1/5 223/1/5
f 229/2/5 226/2/5 225/2/5
f 230/2/5 226/2/5 229/2/5
f 231/2/5 228/2/5 227/2/5
f 232/2/5 228/2/5 231/2/5
f 233/1/6 234/1/6 245/1/6
f 245/1/6 234/1/6 246/1/6
f 235/1/6 236/1/6 247/1/6
f 247/1/6 236/1/6 248/1/6
f 237/1/6 238/1/6 249/1/6
f 249/1/6 238/1/6 250/1/6
f 239/1/6 240/1/6 251/1/6
f 251/1/6 240/1/6 252/1/6
f 241/1/6 242/1/6 253/1/6
f 253/1/6 242/1/6 254/1/6
f 243/1/6 244/1/6 255/1/6
f 255/1/6 244/1/6 256/1/6
f 257/1/6 258/1/6 261/1/6
f 261/1/6 258/1/6 262/1/6
f 259/1/6 260/1/6 263/1/6
f 263/1/6 260/1/6 264/1/6
f 265/2/6 266/2/6 267/2/6
f 267/2/6 266/2/6 268/2/6
f 269/2/6 270/2/6 271/2/6
f 271/2/6 270/2/6 272/2/6
f 269/2/6 271/2/6 273/2/6
f 272/2/6 270/2/6 274/2/6
f 269/2/6 273/2/6 275/2/6
f 273/2/6 274/2/6 275/2/6
f 274/2/6 270/2/6 276/2/6
f 275/2/6 274/2/6 276/2/6
f 277/2/6 278/2/6 279/2/6
f 279/2/6 278/2/6 280/2/6
