# MagicaVoxel @ Ephtracy

# group
o 

# material
mtllib rocket.mtl
usemtl palette

# normals
vn -1 0 0
vn 1 0 0
vn 0 0 1
vn 0 0 -1
vn 0 -1 0
vn 0 1 0

# texcoords
vt 0.841797 0.5
vt 0.970703 0.5
vt 0.986328 0.5
vt 0.994141 0.5

# verts
v -0.4 -0.1 -0.55
v -0.4 -0.1 -0.65
v -0.4 0.1 -0.55
v -0.4 0.1 -0.65
v -0.3 -0.1 -0.45
v -0.3 -0.1 -0.55
v -0.3 0.1 -0.45
v -0.3 0.1 -0.55
v -0.2 -0.1 0.65
v -0.2 -0.1 0.45
v -0.2 -0.1 -0.35
v -0.2 -0.1 -0.45
v -0.2 -0.1 -0.55
v -0.2 -0.1 -0.65
v -0.2 0.1 0.65
v -0.2 0.1 0.45
v -0.2 0.1 -0.35
v -0.2 0.1 -0.45
v -0.2 0.1 -0.55
v -0.2 0.1 -0.65
v -0.1 -0.4 -0.55
v -0.1 -0.4 -0.65
v -0.1 -0.3 -0.45
v -0.1 -0.3 -0.55
v -0.1 -0.3 -0.65
v -0.1 -0.2 0.65
v -0.1 -0.2 0.45
v -0.1 -0.2 -0.35
v -0.1 -0.2 -0.45
v -0.1 -0.2 -0.55
v -0.1 -0.2 -0.65
v -0.1 -0.1 0.75
v -0.1 -0.1 0.65
v -0.1 -0.1 0.45
v -0.1 -0.1 -0.35
v -0.1 -0.1 -0.55
v -0.1 -0.1 -0.65
v -0.1 -0.1 -0.75
v -0.1 0.1 0.75
v -0.1 0.1 0.65
v -0.1 0.1 0.45
v -0.1 0.1 -0.35
v -0.1 0.1 -0.55
v -0.1 0.1 -0.65
v -0.1 0.1 -0.75
v -0.1 0.2 0.65
v -0.1 0.2 0.45
v -0.1 0.2 -0.35
v -0.1 0.2 -0.45
v -0.1 0.2 -0.55
v -0.1 0.2 -0.65
v -0.1 0.3 -0.45
v -0.1 0.3 -0.55
v -0.1 0.3 -0.65
v -0.1 0.4 -0.55
v -0.1 0.4 -0.65
v 0.3 -0.1 -0.55
v 0.3 -0.1 -0.65
v 0.3 0.1 -0.55
v 0.3 0.1 -0.65
v -0.3 -0.1 -0.55
v -0.3 -0.1 -0.65
v -0.3 0.1 -0.55
v -0.3 0.1 -0.65
v 0.1 -0.4 -0.55
v 0.1 -0.4 -0.65
v 0.1 -0.3 -0.45
v 0.1 -0.3 -0.55
v 0.1 -0.3 -0.65
v 0.1 -0.2 0.65
v 0.1 -0.2 0.45
v 0.1 -0.2 -0.35
v 0.1 -0.2 -0.45
v 0.1 -0.2 -0.55
v 0.1 -0.2 -0.65
v 0.1 -0.1 0.75
v 0.1 -0.1 0.65
v 0.1 -0.1 0.45
v 0.1 -0.1 -0.35
v 0.1 -0.1 -0.55
v 0.1 -0.1 -0.65
v 0.1 -0.1 -0.75
v 0.1 0.1 0.75
v 0.1 0.1 0.65
v 0.1 0.1 0.45
v 0.1 0.1 -0.35
v 0.1 0.1 -0.55
v 0.1 0.1 -0.65
v 0.1 0.1 -0.75
v 0.1 0.2 0.65
v 0.1 0.2 0.45
v 0.1 0.2 -0.35
v 0.1 0.2 -0.45
v 0.1 0.2 -0.55
v 0.1 0.2 -0.65
v 0.1 0.3 -0.45
v 0.1 0.3 -0.55
v 0.1 0.3 -0.65
v 0.1 0.4 -0.55
v 0.1 0.4 -0.65
v 0.2 -0.1 0.65
v 0.2 -0.1 0.45
v 0.2 -0.1 -0.35
v 0.2 -0.1 -0.45
v 0.2 -0.1 -0.55
v 0.2 -0.1 -0.65
v 0.2 0.1 0.65
v 0.2 0.1 0.45
v 0.2 0.1 -0.35
v 0.2 0.1 -0.45
v 0.2 0.1 -0.55
v 0.2 0.1 -0.65
v 0.3 -0.1 -0.45
v 0.3 -0.1 -0.55
v 0.3 0.1 -0.45
v 0.3 0.1 -0.55
v 0.4 -0.1 -0.55
v 0.4 -0.1 -0.65
v 0.4 0.1 -0.55
v 0.4 0.1 -0.65
v -0.1 -0.1 0.75
v -0.1 0.1 0.75
v 0.1 -0.1 0.75
v 0.1 0.1 0.75
v -0.2 -0.1 0.65
v -0.2 0.1 0.65
v -0.1 -0.2 0.65
v -0.1 -0.1 0.65
v -0.1 0.1 0.65
v -0.1 0.2 0.65
v 0.1 -0.2 0.65
v 0.1 -0.1 0.65
v 0.1 0.1 0.65
v 0.1 0.2 0.65
v 0.2 -0.1 0.65
v 0.2 0.1 0.65
v -0.3 -0.1 -0.45
v -0.3 0.1 -0.45
v -0.2 -0.1 -0.45
v -0.2 0.1 -0.45
v -0.1 -0.3 -0.45
v -0.1 -0.2 -0.45
v -0.1 0.2 -0.45
v -0.1 0.3 -0.45
v 0.1 -0.3 -0.45
v 0.1 -0.2 -0.45
v 0.1 0.2 -0.45
v 0.1 0.3 -0.45
v 0.2 -0.1 -0.45
v 0.2 0.1 -0.45
v 0.3 -0.1 -0.45
v 0.3 0.1 -0.45
v -0.4 -0.1 -0.55
v -0.4 0.1 -0.55
v -0.3 -0.1 -0.55
v -0.3 0.1 -0.55
v -0.1 -0.4 -0.55
v -0.1 -0.3 -0.55
v -0.1 0.3 -0.55
v -0.1 0.4 -0.55
v 0.1 -0.4 -0.55
v 0.1 -0.3 -0.55
v 0.1 0.3 -0.55
v 0.1 0.4 -0.55
v 0.3 -0.1 -0.55
v 0.3 0.1 -0.55
v 0.4 -0.1 -0.55
v 0.4 0.1 -0.55
v -0.3 -0.1 -0.55
v -0.3 0.1 -0.55
v -0.2 -0.1 -0.55
v -0.2 0.1 -0.55
v -0.1 -0.3 -0.55
v -0.1 -0.2 -0.55
v -0.1 0.2 -0.55
v -0.1 0.3 -0.55
v 0.1 -0.3 -0.55
v 0.1 -0.2 -0.55
v 0.1 0.2 -0.55
v 0.1 0.3 -0.55
v 0.2 -0.1 -0.55
v 0.2 0.1 -0.55
v 0.3 -0.1 -0.55
v 0.3 0.1 -0.55
v -0.4 -0.1 -0.65
v -0.4 0.1 -0.65
v -0.3 -0.1 -0.65
v -0.3 0.1 -0.65
v -0.2 -0.1 -0.65
v -0.2 0.1 -0.65
v -0.1 -0.4 -0.65
v -0.1 -0.3 -0.65
v -0.1 -0.2 -0.65
v -0.1 -0.1 -0.65
v -0.1 0.1 -0.65
v -0.1 0.2 -0.65
v -0.1 0.3 -0.65
v -0.1 0.4 -0.65
v 0.1 -0.4 -0.65
v 0.1 -0.3 -0.65
v 0.1 -0.2 -0.65
v 0.1 -0.1 -0.65
v 0.1 0.1 -0.65
v 0.1 0.2 -0.65
v 0.1 0.3 -0.65
v 0.1 0.4 -0.65
v 0.2 -0.1 -0.65
v 0.2 0.1 -0.65
v 0.3 -0.1 -0.65
v 0.3 0.1 -0.65
v 0.4 -0.1 -0.65
v 0.4 0.1 -0.65
v -0.1 -0.1 -0.75
v -0.1 0.1 -0.75
v 0.1 -0.1 -0.75
v 0.1 0.1 -0.75
v -0.1 -0.4 -0.55
v 0.1 -0.4 -0.55
v -0.1 -0.4 -0.65
v 0.1 -0.4 -0.65
v -0.1 -0.3 -0.45
v 0.1 -0.3 -0.45
v -0.1 -0.3 -0.55
v 0.1 -0.3 -0.55
v -0.1 -0.2 0.65
v 0.1 -0.2 0.65
v -0.1 -0.2 0.45
v 0.1 -0.2 0.45
v -0.1 -0.2 -0.35
v 0.1 -0.2 -0.35
v -0.1 -0.2 -0.45
v 0.1 -0.2 -0.45
v -0.1 -0.2 -0.55
v 0.1 -0.2 -0.55
v -0.1 -0.2 -0.65
v 0.1 -0.2 -0.65
v -0.1 -0.1 0.75
v 0.1 -0.1 0.75
v -0.2 -0.1 0.65
v -0.1 -0.1 0.65
v 0.1 -0.1 0.65
v 0.2 -0.1 0.65
v -0.2 -0.1 0.45
v -0.1 -0.1 0.45
v 0.1 -0.1 0.45
v 0.2 -0.1 0.45
v -0.2 -0.1 -0.35
v -0.1 -0.1 -0.35
v 0.1 -0.1 -0.35
v 0.2 -0.1 -0.35
v -0.3 -0.1 -0.45
v -0.2 -0.1 -0.45
v 0.2 -0.1 -0.45
v 0.3 -0.1 -0.45
v -0.4 -0.1 -0.55
v -0.3 -0.1 -0.55
v -0.2 -0.1 -0.55
v -0.1 -0.1 -0.55
v 0.1 -0.1 -0.55
v 0.2 -0.1 -0.55
v 0.3 -0.1 -0.55
v 0.4 -0.1 -0.55
v -0.4 -0.1 -0.65
v -0.3 -0.1 -0.65
v -0.2 -0.1 -0.65
v -0.1 -0.1 -0.65
v 0.1 -0.1 -0.65
v 0.2 -0.1 -0.65
v 0.3 -0.1 -0.65
v 0.4 -0.1 -0.65
v -0.1 -0.1 -0.75
v 0.1 -0.1 -0.75
v -0.1 0.3 -0.55
v 0.1 0.3 -0.55
v -0.1 0.3 -0.65
v 0.1 0.3 -0.65
v -0.1 -0.3 -0.55
v 0.1 -0.3 -0.55
v -0.1 -0.3 -0.65
v 0.1 -0.3 -0.65
v -0.1 0.1 0.75
v 0.1 0.1 0.75
v -0.2 0.1 0.65
v -0.1 0.1 0.65
v 0.1 0.1 0.65
v 0.2 0.1 0.65
v -0.2 0.1 0.45
v -0.1 0.1 0.45
v 0.1 0.1 0.45
v 0.2 0.1 0.45
v -0.2 0.1 -0.35
v -0.1 0.1 -0.35
v 0.1 0.1 -0.35
v 0.2 0.1 -0.35
v -0.3 0.1 -0.45
v -0.2 0.1 -0.45
v 0.2 0.1 -0.45
v 0.3 0.1 -0.45
v -0.4 0.1 -0.55
v -0.3 0.1 -0.55
v -0.2 0.1 -0.55
v -0.1 0.1 -0.55
v 0.1 0.1 -0.55
v 0.2 0.1 -0.55
v 0.3 0.1 -0.55
v 0.4 0.1 -0.55
v -0.4 0.1 -0.65
v -0.3 0.1 -0.65
v -0.2 0.1 -0.65
v -0.1 0.1 -0.65
v 0.1 0.1 -0.65
v 0.2 0.1 -0.65
v 0.3 0.1 -0.65
v 0.4 0.1 -0.65
v -0.1 0.1 -0.75
v 0.1 0.1 -0.75
v -0.1 0.2 0.65
v 0.1 0.2 0.65
v -0.1 0.2 0.45
v 0.1 0.2 0.45
v -0.1 0.2 -0.35
v 0.1 0.2 -0.35
v -0.1 0.2 -0.45
v 0.1 0.2 -0.45
v -0.1 0.2 -0.55
v 0.1 0.2 -0.55
v -0.1 0.2 -0.65
v 0.1 0.2 -0.65
v -0.1 0.3 -0.45
v 0.1 0.3 -0.45
v -0.1 0.3 -0.55
v 0.1 0.3 -0.55
v -0.1 0.4 -0.55
v 0.1 0.4 -0.55
v -0.1 0.4 -0.65
v 0.1 0.4 -0.65

# faces
f 3/3/1 2/3/1 1/3/1
f 4/3/1 2/3/1 3/3/1
f 7/3/1 6/3/1 5/3/1
f 8/3/1 6/3/1 7/3/1
f 15/4/1 10/4/1 9/4/1
f 16/2/1 11/2/1 10/2/1
f 16/4/1 10/4/1 15/4/1
f 17/3/1 12/3/1 11/3/1
f 17/2/1 11/2/1 16/2/1
f 18/3/1 12/3/1 17/3/1
f 19/1/1 14/1/1 13/1/1
f 20/1/1 14/1/1 19/1/1
f 24/3/1 22/3/1 21/3/1
f 25/3/1 22/3/1 24/3/1
f 29/3/1 24/3/1 23/3/1
f 30/3/1 24/3/1 29/3/1
f 33/4/1 27/4/1 26/4/1
f 34/2/1 28/2/1 27/2/1
f 34/4/1 27/4/1 33/4/1
f 35/3/1 29/3/1 28/3/1
f 35/2/1 28/2/1 34/2/1
f 35/3/1 30/3/1 29/3/1
f 36/1/1 31/1/1 30/1/1
f 36/3/1 30/3/1 35/3/1
f 37/1/1 31/1/1 36/1/1
f 39/4/1 33/4/1 32/4/1
f 40/4/1 33/4/1 39/4/1
f 44/1/1 38/1/1 37/1/1
f 45/1/1 38/1/1 44/1/1
f 46/4/1 41/4/1 40/4/1
f 47/2/1 42/2/1 41/2/1
f 47/4/1 41/4/1 46/4/1
f 48/3/1 43/3/1 42/3/1
f 48/2/1 42/2/1 47/2/1
f 49/3/1 43/3/1 48/3/1
f 50/1/1 44/1/1 43/1/1
f 50/3/1 43/3/1 49/3/1
f 51/1/1 44/1/1 50/1/1
f 52/3/1 50/3/1 49/3/1
f 53/3/1 50/3/1 52/3/1
f 55/3/1 54/3/1 53/3/1
f 56/3/1 54/3/1 55/3/1
f 59/3/1 58/3/1 57/3/1
f 60/3/1 58/3/1 59/3/1
f 61/3/2 62/3/2 63/3/2
f 63/3/2 62/3/2 64/3/2
f 65/3/2 66/3/2 68/3/2
f 68/3/2 66/3/2 69/3/2
f 67/3/2 68/3/2 73/3/2
f 73/3/2 68/3/2 74/3/2
f 70/4/2 71/4/2 77/4/2
f 71/2/2 72/2/2 78/2/2
f 77/4/2 71/4/2 78/4/2
f 72/3/2 73/3/2 79/3/2
f 78/2/2 72/2/2 79/2/2
f 73/3/2 74/3/2 79/3/2
f 74/1/2 75/1/2 80/1/2
f 79/3/2 74/3/2 80/3/2
f 80/1/2 75/1/2 81/1/2
f 76/4/2 77/4/2 83/4/2
f 83/4/2 77/4/2 84/4/2
f 81/1/2 82/1/2 88/1/2
f 88/1/2 82/1/2 89/1/2
f 84/4/2 85/4/2 90/4/2
f 85/2/2 86/2/2 91/2/2
f 90/4/2 85/4/2 91/4/2
f 86/3/2 87/3/2 92/3/2
f 91/2/2 86/2/2 92/2/2
f 92/3/2 87/3/2 93/3/2
f 87/1/2 88/1/2 94/1/2
f 93/3/2 87/3/2 94/3/2
f 94/1/2 88/1/2 95/1/2
f 93/3/2 94/3/2 96/3/2
f 96/3/2 94/3/2 97/3/2
f 97/3/2 98/3/2 99/3/2
f 99/3/2 98/3/2 100/3/2
f 101/4/2 102/4/2 107/4/2
f 102/2/2 103/2/2 108/2/2
f 107/4/2 102/4/2 108/4/2
f 103/3/2 104/3/2 109/3/2
f 108/2/2 103/2/2 109/2/2
f 109/3/2 104/3/2 110/3/2
f 105/1/2 106/1/2 111/1/2
f 111/1/2 106/1/2 112/1/2
f 113/3/2 114/3/2 115/3/2
f 115/3/2 114/3/2 116/3/2
f 117/3/2 118/3/2 119/3/2
f 119/3/2 118/3/2 120/3/2
f 123/4/3 122/4/3 121/4/3
f 124/4/3 122/4/3 123/4/3
f 128/4/3 126/4/3 125/4/3
f 129/4/3 126/4/3 128/4/3
f 131/4/3 128/4/3 127/4/3
f 132/4/3 128/4/3 131/4/3
f 133/4/3 130/4/3 129/4/3
f 134/4/3 130/4/3 133/4/3
f 135/4/3 133/4/3 132/4/3
f 136/4/3 133/4/3 135/4/3
f 139/3/3 138/3/3 137/3/3
f 140/3/3 138/3/3 139/3/3
f 145/3/3 142/3/3 141/3/3
f 146/3/3 142/3/3 145/3/3
f 147/3/3 144/3/3 143/3/3
f 148/3/3 144/3/3 147/3/3
f 151/3/3 150/3/3 149/3/3
f 152/3/3 150/3/3 151/3/3
f 155/3/3 154/3/3 153/3/3
f 156/3/3 154/3/3 155/3/3
f 161/3/3 158/3/3 157/3/3
f 162/3/3 158/3/3 161/3/3
f 163/3/3 160/3/3 159/3/3
f 164/3/3 160/3/3 163/3/3
f 167/3/3 166/3/3 165/3/3
f 168/3/3 166/3/3 167/3/3
f 169/3/4 170/3/4 171/3/4
f 171/3/4 170/3/4 172/3/4
f 173/3/4 174/3/4 177/3/4
f 177/3/4 174/3/4 178/3/4
f 175/3/4 176/3/4 179/3/4
f 179/3/4 176/3/4 180/3/4
f 181/3/4 182/3/4 183/3/4
f 183/3/4 182/3/4 184/3/4
f 185/3/4 186/3/4 187/3/4
f 187/3/4 186/3/4 188/3/4
f 189/1/4 190/1/4 194/1/4
f 194/1/4 190/1/4 195/1/4
f 191/3/4 192/3/4 199/3/4
f 199/3/4 192/3/4 200/3/4
f 193/1/4 194/1/4 201/1/4
f 201/1/4 194/1/4 202/1/4
f 195/1/4 196/1/4 203/1/4
f 203/1/4 196/1/4 204/1/4
f 197/3/4 198/3/4 205/3/4
f 205/3/4 198/3/4 206/3/4
f 202/1/4 203/1/4 207/1/4
f 207/1/4 203/1/4 208/1/4
f 209/3/4 210/3/4 211/3/4
f 211/3/4 210/3/4 212/3/4
f 213/1/4 214/1/4 215/1/4
f 215/1/4 214/1/4 216/1/4
f 219/3/5 218/3/5 217/3/5
f 220/3/5 218/3/5 219/3/5
f 223/3/5 222/3/5 221/3/5
f 224/3/5 222/3/5 223/3/5
f 227/4/5 226/4/5 225/4/5
f 228/4/5 226/4/5 227/4/5
f 229/2/5 228/2/5 227/2/5
f 230/2/5 228/2/5 229/2/5
f 231/3/5 230/3/5 229/3/5
f 232/3/5 230/3/5 231/3/5
f 235/1/5 234/1/5 233/1/5
f 236/1/5 234/1/5 235/1/5
f 240/4/5 238/4/5 237/4/5
f 241/4/5 238/4/5 240/4/5
f 243/4/5 240/4/5 239/4/5
f 244/4/5 240/4/5 243/4/5
f 245/4/5 242/4/5 241/4/5
f 246/4/5 242/4/5 245/4/5
f 247/2/5 244/2/5 243/2/5
f 248/2/5 244/2/5 247/2/5
f 249/2/5 246/2/5 245/2/5
f 250/2/5 246/2/5 249/2/5
f 252/3/5 248/3/5 247/3/5
f 253/3/5 250/3/5 249/3/5
f 256/3/5 252/3/5 251/3/5
f 257/3/5 248/3/5 252/3/5
f 257/3/5 252/3/5 256/3/5
f 258/3/5 248/3/5 257/3/5
f 259/3/5 253/3/5 249/3/5
f 259/3/5 254/3/5 253/3/5
f 260/3/5 254/3/5 259/3/5
f 261/3/5 254/3/5 260/3/5
f 263/3/5 256/3/5 255/3/5
f 264/3/5 256/3/5 263/3/5
f 265/1/5 258/1/5 257/1/5
f 266/1/5 258/1/5 265/1/5
f 267/1/5 260/1/5 259/1/5
f 268/1/5 260/1/5 267/1/5
f 269/3/5 262/3/5 261/3/5
f 270/3/5 262/3/5 269/3/5
f 271/1/5 267/1/5 266/1/5
f 272/1/5 267/1/5 271/1/5
f 275/3/5 274/3/5 273/3/5
f 276/3/5 274/3/5 275/3/5
f 277/3/6 278/3/6 279/3/6
f 279/3/6 278/3/6 280/3/6
f 281/4/6 282/4/6 284/4/6
f 284/4/6 282/4/6 285/4/6
f 283/4/6 284/4/6 287/4/6
f 287/4/6 284/4/6 288/4/6
f 285/4/6 286/4/6 289/4/6
f 289/4/6 286/4/6 290/4/6
f 287/2/6 288/2/6 291/2/6
f 291/2/6 288/2/6 292/2/6
f 289/2/6 290/2/6 293/2/6
f 293/2/6 290/2/6 294/2/6
f 291/3/6 292/3/6 296/3/6
f 293/3/6 294/3/6 297/3/6
f 295/3/6 296/3/6 300/3/6
f 296/3/6 292/3/6 301/3/6
f 300/3/6 296/3/6 301/3/6
f 301/3/6 292/3/6 302/3/6
f 293/3/6 297/3/6 303/3/6
f 297/3/6 298/3/6 303/3/6
f 303/3/6 298/3/6 304/3/6
f 304/3/6 298/3/6 305/3/6
f 299/3/6 300/3/6 307/3/6
f 307/3/6 300/3/6 308/3/6
f 301/1/6 302/1/6 309/1/6
f 309/1/6 302/1/6 310/1/6
f 303/1/6 304/1/6 311/1/6
f 311/1/6 304/1/6 312/1/6
f 305/3/6 306/3/6 313/3/6
f 313/3/6 306/3/6 314/3/6
f 310/1/6 311/1/6 315/1/6
f 315/1/6 311/1/6 316/1/6
f 317/4/6 318/4/6 319/4/6
f 319/4/6 318/4/6 320/4/6
f 319/2/6 320/2/6 321/2/6
f 321/2/6 320/2/6 322/2/6
f 321/3/6 322/3/6 323/3/6
f 323/3/6 322/3/6 324/3/6
f 325/1/6 326/1/6 327/1/6
f 327/1/6 326/1/6 328/1/6
f 329/3/6 330/3/6 331/3/6
f 331/3/6 330/3/6 332/3/6
f 333/3/6 334/3/6 335/3/6
f 335/3/6 334/3/6 336/3/6
